<?xml version="1.0" encoding="UTF-8" standalone="no"?>
<!-- Created with Inkscape (http://www.inkscape.org/) -->
<svg xmlns:inkscape="http://www.inkscape.org/namespaces/inkscape" xmlns:rdf="http://www.w3.org/1999/02/22-rdf-syntax-ns#" xmlns="http://www.w3.org/2000/svg" xmlns:sodipodi="http://sodipodi.sourceforge.net/DTD/sodipodi-0.dtd" xmlns:cc="http://creativecommons.org/ns#" xmlns:xlink="http://www.w3.org/1999/xlink" xmlns:dc="http://purl.org/dc/elements/1.1/" xmlns:svg="http://www.w3.org/2000/svg" xmlns:ns1="http://sozi.baierouge.fr" id="svg9666" sodipodi:docname="checkeredflag.svg" viewBox="0 0 121.91 121.66" version="1.1" inkscape:version="0.48.2 r9819">
  <defs id="defs9668">
    <filter id="filter7718" inkscape:collect="always" color-interpolation-filters="sRGB">
      <feGaussianBlur id="feGaussianBlur7720" stdDeviation="1.5891777" inkscape:collect="always"/>
    </filter>
    <radialGradient id="radialGradient9221" gradientUnits="userSpaceOnUse" cy="116.08" cx="-560.76" gradientTransform="matrix(1 0 0 .78355 -155.01 -217.93)" r="84.742" inkscape:collect="always">
      <stop id="stop7181" style="stop-color:white" offset="0"/>
      <stop id="stop7179" style="stop-color:#e6e7e9" offset="1"/>
    </radialGradient>
    <radialGradient id="radialGradient9223" gradientUnits="userSpaceOnUse" cy="-129" cx="-707.38" gradientTransform="matrix(1 0 0 .97348 0 -3.4213)" r="152" inkscape:collect="always">
      <stop id="stop7145" style="stop-color:#4d4d4d" offset="0"/>
      <stop id="stop7155" style="stop-color:#999" offset=".88225"/>
      <stop id="stop7153" style="stop-color:#e6e6e6" offset=".91590"/>
      <stop id="stop7151" style="stop-color:#4d4d4d" offset=".94715"/>
      <stop id="stop7147" style="stop-color:#ccc" offset="1"/>
    </radialGradient>
    <linearGradient id="linearGradient9225" y2="-288.63" gradientUnits="userSpaceOnUse" x2="-714.43" y1="-180.48" x1="-717.87" inkscape:collect="always">
      <stop id="stop7161" style="stop-color:#333" offset="0"/>
      <stop id="stop7163" style="stop-color:#4d4d4d" offset="1"/>
    </linearGradient>
    <radialGradient id="radialGradient9227" xlink:href="#linearGradient7195" gradientUnits="userSpaceOnUse" cy="-80.624" cx="-807.27" gradientTransform="matrix(.99935 -.036111 .035677 .98734 2.5173 -30.73)" r="40.964" inkscape:collect="always"/>
    <linearGradient id="linearGradient7195" inkscape:collect="always">
      <stop id="stop7199" style="stop-color:black" offset="0"/>
      <stop id="stop7197" style="stop-color:#333" offset="1"/>
    </linearGradient>
    <radialGradient id="radialGradient9229" xlink:href="#linearGradient7195" gradientUnits="userSpaceOnUse" cy="-82.823" cx="-609.87" gradientTransform="matrix(.99877 -.049650 .053516 1.0765 3.9524 -22.839)" r="40.964" inkscape:collect="always"/>
    <linearGradient id="linearGradient9231" y2="69.393" gradientUnits="userSpaceOnUse" x2="-711.21" y1="-38.758" x1="-710.48" inkscape:collect="always">
      <stop id="stop7189" style="stop-color:#333" offset="0"/>
      <stop id="stop7191" style="stop-color:black" offset="1"/>
    </linearGradient>
    <filter id="filter7230" inkscape:collect="always" color-interpolation-filters="sRGB">
      <feGaussianBlur id="feGaussianBlur7232" stdDeviation="0.8371875" inkscape:collect="always"/>
    </filter>
    <radialGradient id="radialGradient9233" xlink:href="#linearGradient7195" gradientUnits="userSpaceOnUse" cy="-123.89" cx="-466.22" r="38.364" inkscape:collect="always"/>
    <linearGradient id="linearGradient9235" y2="-90.477" gradientUnits="userSpaceOnUse" x2="-702.73" y1="-154.55" x1="-714.11" inkscape:collect="always">
      <stop id="stop7214" style="stop-color:white" offset="0"/>
      <stop id="stop7222" style="stop-color:#b3b3b3" offset=".25"/>
      <stop id="stop7220" style="stop-color:#999" offset=".66047"/>
      <stop id="stop7216" style="stop-color:#f2f2f2" offset="1"/>
    </linearGradient>
    <radialGradient id="radialGradient9237" xlink:href="#linearGradient7242-1" gradientUnits="userSpaceOnUse" cy="-140.6" cx="-511.55" r="10.851" inkscape:collect="always"/>
    <linearGradient id="linearGradient7242-1" inkscape:collect="always">
      <stop id="stop7246-6" style="stop-color:#ccc" offset="0"/>
      <stop id="stop7260-9" style="stop-color:white" offset=".54762"/>
      <stop id="stop7244-6" style="stop-color:#999" offset="1"/>
    </linearGradient>
    <linearGradient id="linearGradient9239" y2="-192.07" xlink:href="#linearGradient7278" gradientUnits="userSpaceOnUse" x2="-526.89" y1="-180.78" x1="-521.28" inkscape:collect="always"/>
    <linearGradient id="linearGradient7278" inkscape:collect="always">
      <stop id="stop7280" style="stop-color:black" offset="0"/>
      <stop id="stop7282" style="stop-color:black;stop-opacity:0" offset="1"/>
    </linearGradient>
  </defs>
  <sodipodi:namedview id="base" bordercolor="#666666" inkscape:pageshadow="2" inkscape:window-y="27" fit-margin-left="5" pagecolor="#ffffff" fit-margin-top="5" inkscape:window-maximized="1" inkscape:zoom="0.35" inkscape:window-x="0" inkscape:window-height="965" showgrid="false" borderopacity="1.0" inkscape:current-layer="layer1" inkscape:cx="88.929262" inkscape:cy="93.105624" fit-margin-right="5" fit-margin-bottom="5" inkscape:window-width="1280" inkscape:pageopacity="0.0" inkscape:document-units="px"/>
  <g id="layer1" inkscape:label="Ebene 1" inkscape:groupmode="layer" transform="translate(-261.07 -503.81)">
    <g id="g7722" transform="matrix(.67119 0 0 .67119 332.24 723.49)">
      <path id="path7436" style="opacity:.5;filter:url(#filter7718);fill:black" inkscape:connector-curvature="0" d="m-15.969-316.03c-60.746 0.7311-75.562 58.188-75.562 58.188l-0.53125 2.9375 1.0625-0.3125c-0.74216 2.8232-1.3096 5.6858-1.7188 8.625l-1.9062 0.65625s-1.1468 25.375 2.9375 37.094c4.3058 12.354 21.906 32.594 21.906 32.594l1-4.375c1.474 1.3541 2.9843 2.6654 4.5625 3.9062l-0.625 2.25s15.722 17.014 50.219 17.156c28.622 0.11825 49.094-16.781 49.094-16.781l-0.5-2.2812c1.6284-1.2618 3.1994-2.5872 4.7188-3.9688l0.6875 3.0625s17.569-20.24 21.875-32.594c4.0843-11.718 2.9375-37.094 2.9375-37.094l-1.4062-0.5c-0.38955-2.5744-0.91625-5.0784-1.5625-7.5625l0.5 0.125 0.53125-1.875s-15.538-60.004-78.219-59.25zm4.5312 13.562c19.145-0.16146 36.677 11.134 47.531 25.406 1.5955 2.0979 0.53167 5.3378 1.5938 7.75 1.5926 3.6172 6.9375 9.5938 6.9375 9.5938l5.8125 1.625c0.81028 2.2929 1.5075 4.6338 2.0625 7.0312l-3.5312-1.25s0.7764 8.1778-2.9375 9.875c-8.076 3.69-24.03-4.81-24.03-4.81l0.25 0.875c-2.8103-1.1645-25.488-10.394-38.219-10.25-11.689 0.13217-31.285 8.2806-36.5 10.531l0.03125-0.125s-0.71122 0.37746-1.6875 0.84375c-0.04977 0.0221-0.53125 0.21875-0.53125 0.21875v0.0312c-4.6129 2.147-15.54 6.5851-21.812 3.7188-3.7139-1.6972-2.9375-9.875-2.9375-9.875l-3.0938 1.0938c0.60758-2.8018 1.3902-5.5263 2.3438-8.1875l4.625-1.3438s5.5543-5.2854 7.5-8.5312c2.2012-3.672 1.5876-8.8913 4.5312-12 12.576-13.281 24.74-20.984 50.188-22.188 0.62076-0.0294 1.2574-0.026 1.875-0.0312zm37 67.906 2.5938 9.2188s15.277 1.1908 17.75 7.0625c3.4609 8.2181-10.281 24.688-10.281 24.688l0.59375 2.625c-1.4434 1.5436-2.9476 3.0615-4.5312 4.4688l-0.625-2.7188s-22.342 19.324-32.844 13.781c-4.4316-2.3389-3.0312-14.719-3.0312-14.719h-0.4375c0.80649-5.8494 3.6491-22.982 10.375-29.094 5.6878-5.168 22.438-5.3438 22.438-5.3438l-2-9.9688zm-84.469 10.281c2.8101 0.10067 16.735 0.81576 22.125 5.5625 6.8466 6.0294 10.315 23.378 11.219 28.562h-1.1562s-0.76311 12.791-5.6562 14.719c-9.7675 3.8487-28.312-13.781-28.312-13.781l-0.78125 2.7188c-1.7055-1.5151-3.3326-3.1396-4.875-4.8125l0.28125-1.2188s-13.742-16.501-10.281-24.719c2.3255-5.522 15.819-6.8849 17.438-7.0312z"/>
      <g id="g7374" transform="matrix(.51672 0 0 .51672 350.61 -169.56)">
        <path id="path7175" sodipodi:nodetypes="caccaccacc" style="fill:url(#radialGradient9221)" inkscape:connector-curvature="0" d="m-784.33-146.3s48.876-21.924 74.924-22.219c26.238-0.29669 75.958 20.669 75.958 20.669l8.2675 41.338s-32.397 0.33283-43.404 10.334c-15.762 14.322-20.669 60.456-20.669 60.456l-38.237-1.0334s-6.5906-44.626-22.219-58.389c-11.569-10.188-44.955-10.851-44.955-10.851z"/>
        <path id="path7138" style="color:black;fill:url(#radialGradient9223)" inkscape:connector-curvature="0" d="m-707.38-276.97c-83.945 0-152 66.243-152 147.97 0 81.726 68.055 147.97 152 147.97s152-66.243 152-147.97c0-81.726-68.055-147.97-152-147.97zm0 17.781c73.856 0 133.75 58.285 133.75 130.19 0 71.903-59.894 130.19-133.75 130.19s-133.72-58.285-133.72-130.19c0-71.903 59.863-130.19 133.72-130.19z"/>
        <path id="path7157" sodipodi:nodetypes="ccaasaacccscc" style="fill:url(#linearGradient9225)" inkscape:connector-curvature="0" d="m-856.72-165.16 32.037-9.301s10.703-10.253 14.468-16.535c4.26-7.1064 3.0875-17.236 8.7842-23.252 24.337-25.702 47.895-40.558 97.143-42.888 38.443-1.8182 73.909 20.577 95.593 49.088 3.0877 4.06 1.0449 10.317 3.1003 14.985 3.0821 7.0002 13.435 18.602 13.435 18.602l33.07 9.301 1.0334-3.617s-30.095-116.17-151.4-114.71c-117.56 1.4149-146.23 112.64-146.23 112.64z"/>
        <path id="path7167" sodipodi:nodetypes="ccsccaccac" style="fill:url(#radialGradient9227)" inkscape:connector-curvature="0" d="m-791.9-105.98 11.885-42.371s-30.873 16.445-46.505 9.3009c-7.1874-3.2846-5.6839-19.119-5.6839-19.119l-29.453 10.334s-2.2204 49.146 5.6839 71.824c8.3329 23.908 42.371 63.04 42.371 63.04l7.2341-31.52s-26.592-31.892-19.894-47.797c4.7855-11.363 34.362-13.693 34.362-13.693z"/>
        <path id="path7169" d="m-624.06-107.98-11.885-42.371s30.873 16.445 46.505 9.3009c7.1874-3.2846 5.6839-19.119 5.6839-19.119l29.453 10.334s2.2204 49.146-5.6839 71.824c-8.3329 23.908-42.371 63.04-42.371 63.04l-7.2341-31.52s26.592-31.892 19.894-47.797c-4.7855-11.363-34.362-13.693-34.362-13.693z" sodipodi:nodetypes="ccsccaccac" style="fill:url(#radialGradient9229)" inkscape:connector-curvature="0"/>
        <path id="path7171" sodipodi:nodetypes="ccaccsccac" style="fill:url(#linearGradient9231)" inkscape:connector-curvature="0" d="m-730.21-39.855h42.384s-2.7304 23.973 5.846 28.499c20.324 10.727 63.575-26.672 63.575-26.672l6.5768 29.23s-39.588 32.747-94.979 32.518c-66.761-0.27582-97.209-33.249-97.209-33.249l8.0383-28.499s35.904 34.121 54.806 26.672c9.4696-3.7313 10.961-28.499 10.961-28.499z"/>
        <path id="path7224" d="m-708.44-165.41c-23.115 0-41.844 18.728-41.844 41.844 0 23.115 18.728 41.875 41.844 41.875 23.115 0 41.875-18.76 41.875-41.875s-18.76-41.844-41.875-41.844zm0 8.7812c18.264 0 33.094 14.798 33.094 33.062s-14.83 33.094-33.094 33.094-33.062-14.83-33.062-33.094 14.798-33.062 33.062-33.062z" style="opacity:.5;color:black;filter:url(#filter7230);fill:black" inkscape:connector-curvature="0"/>
        <path id="path7234" sodipodi:rx="38.364464" sodipodi:ry="38.364464" style="color:black;fill:url(#radialGradient9233)" sodipodi:type="arc" d="m-427.86-123.89c0 21.188-17.176 38.364-38.364 38.364s-38.364-17.176-38.364-38.364 17.176-38.364 38.364-38.364 38.364 17.176 38.364 38.364z" transform="translate(-242.97 1.0961)" sodipodi:cy="-123.89156" sodipodi:cx="-466.21957"/>
        <path id="path7207" style="color:black;fill:url(#linearGradient9235)" inkscape:connector-curvature="0" d="m-708.44-165.41c-23.115 0-41.844 18.728-41.844 41.844 0 23.115 18.728 41.875 41.844 41.875 23.115 0 41.875-18.76 41.875-41.875s-18.76-41.844-41.875-41.844zm0 8.7812c18.264 0 33.094 14.798 33.094 33.062s-14.83 33.094-33.094 33.094-33.062-14.83-33.062-33.094 14.798-33.062 33.062-33.062z"/>
        <g id="g7300">
          <g id="g7286">
            <path id="path7238" sodipodi:rx="10.851109" sodipodi:ry="10.851109" style="color:black;fill:url(#radialGradient9237)" sodipodi:type="arc" d="m-500.7-140.6c0 5.9929-4.8582 10.851-10.851 10.851-5.9929 0-10.851-4.8582-10.851-10.851 0-5.9929 4.8582-10.851 10.851-10.851 5.9929 0 10.851 4.8582 10.851 10.851z" transform="matrix(.23810 0 0 .23810 -586.5 -127.41)" sodipodi:cy="-140.60402" sodipodi:cx="-511.55228"/>
            <path id="path7240" style="opacity:.5;color:black;fill:url(#linearGradient9239)" sodipodi:type="star" sodipodi:sides="6" sodipodi:r1="6.0314689" sodipodi:r2="5.2234054" sodipodi:arg1="0.7551044" sodipodi:arg2="1.2787032" transform="matrix(.28602 0 0 .28602 -558.65 -107.89)" inkscape:randomized="0" sodipodi:cy="-185.30026" sodipodi:cx="-523.17847" inkscape:rounded="0" inkscape:flatsided="true" d="m-518.79-181.17-5.776 1.7368-4.3921-4.1338 1.3839-5.8706 5.776-1.7368 4.3921 4.1338z"/>
          </g>
          <g id="g7290" transform="translate(0,74)">
            <path id="path7292" sodipodi:rx="10.851109" sodipodi:ry="10.851109" style="color:black;fill:url(#radialGradient9237)" sodipodi:type="arc" d="m-500.7-140.6c0 5.9929-4.8582 10.851-10.851 10.851-5.9929 0-10.851-4.8582-10.851-10.851 0-5.9929 4.8582-10.851 10.851-10.851 5.9929 0 10.851 4.8582 10.851 10.851z" transform="matrix(.23810 0 0 .23810 -586.5 -127.41)" sodipodi:cy="-140.60402" sodipodi:cx="-511.55228"/>
            <path id="path7294" style="opacity:.5;color:black;fill:url(#linearGradient9239)" sodipodi:type="star" d="m-518.79-181.17-5.776 1.7368-4.3921-4.1338 1.3839-5.8706 5.776-1.7368 4.3921 4.1338z" sodipodi:r1="6.0314689" inkscape:flatsided="true" transform="matrix(.28602 0 0 .28602 -558.65 -107.89)" sodipodi:arg2="1.2787032" sodipodi:arg1="0.7551044" inkscape:randomized="0" sodipodi:cy="-185.30026" sodipodi:cx="-523.17847" inkscape:rounded="0" sodipodi:r2="5.2234054" sodipodi:sides="6"/>
          </g>
        </g>
        <g id="g7308" transform="matrix(0 -1 1 0 -584.41 -832.18)">
          <g id="g7310">
            <path id="path7312" sodipodi:rx="10.851109" sodipodi:ry="10.851109" style="color:black;fill:url(#radialGradient9237)" sodipodi:type="arc" d="m-500.7-140.6c0 5.9929-4.8582 10.851-10.851 10.851-5.9929 0-10.851-4.8582-10.851-10.851 0-5.9929 4.8582-10.851 10.851-10.851 5.9929 0 10.851 4.8582 10.851 10.851z" transform="matrix(.23810 0 0 .23810 -586.5 -127.41)" sodipodi:cy="-140.60402" sodipodi:cx="-511.55228"/>
            <path id="path7314" style="opacity:.5;color:black;fill:url(#linearGradient9239)" sodipodi:type="star" d="m-518.79-181.17-5.776 1.7368-4.3921-4.1338 1.3839-5.8706 5.776-1.7368 4.3921 4.1338z" sodipodi:r1="6.0314689" inkscape:flatsided="true" transform="matrix(.28602 0 0 .28602 -558.65 -107.89)" sodipodi:arg2="1.2787032" sodipodi:arg1="0.7551044" inkscape:randomized="0" sodipodi:cy="-185.30026" sodipodi:cx="-523.17847" inkscape:rounded="0" sodipodi:r2="5.2234054" sodipodi:sides="6"/>
          </g>
          <g id="g7316" transform="translate(0,74)">
            <path id="path7318" sodipodi:rx="10.851109" sodipodi:ry="10.851109" style="color:black;fill:url(#radialGradient9237)" sodipodi:type="arc" d="m-500.7-140.6c0 5.9929-4.8582 10.851-10.851 10.851-5.9929 0-10.851-4.8582-10.851-10.851 0-5.9929 4.8582-10.851 10.851-10.851 5.9929 0 10.851 4.8582 10.851 10.851z" transform="matrix(.23810 0 0 .23810 -586.5 -127.41)" sodipodi:cy="-140.60402" sodipodi:cx="-511.55228"/>
            <path id="path7320" style="opacity:.5;color:black;fill:url(#linearGradient9239)" sodipodi:type="star" sodipodi:sides="6" sodipodi:r1="6.0314689" sodipodi:r2="5.2234054" sodipodi:arg1="0.7551044" sodipodi:arg2="1.2787032" transform="matrix(.28602 0 0 .28602 -558.65 -107.89)" inkscape:randomized="0" sodipodi:cy="-185.30026" sodipodi:cx="-523.17847" inkscape:rounded="0" inkscape:flatsided="true" d="m-518.79-181.17-5.776 1.7368-4.3921-4.1338 1.3839-5.8706 5.776-1.7368 4.3921 4.1338z"/>
          </g>
        </g>
        <g id="g7330" transform="matrix(-.71083 -.70336 .70336 -.71083 -1124.6 -710.13)">
          <g id="g7332">
            <path id="path7334" sodipodi:rx="10.851109" sodipodi:ry="10.851109" style="color:black;fill:url(#radialGradient9237)" sodipodi:type="arc" d="m-500.7-140.6c0 5.9929-4.8582 10.851-10.851 10.851-5.9929 0-10.851-4.8582-10.851-10.851 0-5.9929 4.8582-10.851 10.851-10.851 5.9929 0 10.851 4.8582 10.851 10.851z" transform="matrix(.23810 0 0 .23810 -586.5 -127.41)" sodipodi:cy="-140.60402" sodipodi:cx="-511.55228"/>
            <path id="path7336" style="opacity:.5;color:black;fill:url(#linearGradient9239)" sodipodi:type="star" sodipodi:sides="6" sodipodi:r1="6.0314689" sodipodi:r2="5.2234054" sodipodi:arg1="0.7551044" sodipodi:arg2="1.2787032" transform="matrix(.28602 0 0 .28602 -558.65 -107.89)" inkscape:randomized="0" sodipodi:cy="-185.30026" sodipodi:cx="-523.17847" inkscape:rounded="0" inkscape:flatsided="true" d="m-518.79-181.17-5.776 1.7368-4.3921-4.1338 1.3839-5.8706 5.776-1.7368 4.3921 4.1338z"/>
          </g>
          <g id="g7338" transform="translate(0,74)">
            <path id="path7340" sodipodi:rx="10.851109" sodipodi:ry="10.851109" style="color:black;fill:url(#radialGradient9237)" sodipodi:type="arc" d="m-500.7-140.6c0 5.9929-4.8582 10.851-10.851 10.851-5.9929 0-10.851-4.8582-10.851-10.851 0-5.9929 4.8582-10.851 10.851-10.851 5.9929 0 10.851 4.8582 10.851 10.851z" transform="matrix(.23810 0 0 .23810 -586.5 -127.41)" sodipodi:cy="-140.60402" sodipodi:cx="-511.55228"/>
            <path id="path7342" style="opacity:.5;color:black;fill:url(#linearGradient9239)" sodipodi:type="star" d="m-518.79-181.17-5.776 1.7368-4.3921-4.1338 1.3839-5.8706 5.776-1.7368 4.3921 4.1338z" sodipodi:r1="6.0314689" inkscape:flatsided="true" transform="matrix(.28602 0 0 .28602 -558.65 -107.89)" sodipodi:arg2="1.2787032" sodipodi:arg1="0.7551044" inkscape:randomized="0" sodipodi:cy="-185.30026" sodipodi:cx="-523.17847" inkscape:rounded="0" sodipodi:r2="5.2234054" sodipodi:sides="6"/>
          </g>
        </g>
        <g id="g7352" transform="matrix(.71083 -.70336 -.70336 -.71083 -291.95 -710.13)">
          <g id="g7354">
            <path id="path7356" sodipodi:rx="10.851109" sodipodi:ry="10.851109" style="color:black;fill:url(#radialGradient9237)" sodipodi:type="arc" d="m-500.7-140.6c0 5.9929-4.8582 10.851-10.851 10.851-5.9929 0-10.851-4.8582-10.851-10.851 0-5.9929 4.8582-10.851 10.851-10.851 5.9929 0 10.851 4.8582 10.851 10.851z" transform="matrix(.23810 0 0 .23810 -586.5 -127.41)" sodipodi:cy="-140.60402" sodipodi:cx="-511.55228"/>
            <path id="path7358" style="opacity:.5;color:black;fill:url(#linearGradient9239)" sodipodi:type="star" d="m-518.79-181.17-5.776 1.7368-4.3921-4.1338 1.3839-5.8706 5.776-1.7368 4.3921 4.1338z" sodipodi:r1="6.0314689" inkscape:flatsided="true" transform="matrix(.28602 0 0 .28602 -558.65 -107.89)" sodipodi:arg2="1.2787032" sodipodi:arg1="0.7551044" inkscape:randomized="0" sodipodi:cy="-185.30026" sodipodi:cx="-523.17847" inkscape:rounded="0" sodipodi:r2="5.2234054" sodipodi:sides="6"/>
          </g>
          <g id="g7360" transform="translate(0,74)">
            <path id="path7362" sodipodi:rx="10.851109" sodipodi:ry="10.851109" style="color:black;fill:url(#radialGradient9237)" sodipodi:type="arc" d="m-500.7-140.6c0 5.9929-4.8582 10.851-10.851 10.851-5.9929 0-10.851-4.8582-10.851-10.851 0-5.9929 4.8582-10.851 10.851-10.851 5.9929 0 10.851 4.8582 10.851 10.851z" transform="matrix(.23810 0 0 .23810 -586.5 -127.41)" sodipodi:cy="-140.60402" sodipodi:cx="-511.55228"/>
            <path id="path7364" style="opacity:.5;color:black;fill:url(#linearGradient9239)" sodipodi:type="star" sodipodi:sides="6" sodipodi:r1="6.0314689" sodipodi:r2="5.2234054" sodipodi:arg1="0.7551044" sodipodi:arg2="1.2787032" transform="matrix(.28602 0 0 .28602 -558.65 -107.89)" inkscape:randomized="0" sodipodi:cy="-185.30026" sodipodi:cx="-523.17847" inkscape:rounded="0" inkscape:flatsided="true" d="m-518.79-181.17-5.776 1.7368-4.3921-4.1338 1.3839-5.8706 5.776-1.7368 4.3921 4.1338z"/>
          </g>
        </g>
      </g>
    </g>
  </g>
  <metadata>
    <rdf:RDF>
      <cc:Work>
        <dc:format>image/svg+xml</dc:format>
        <dc:type rdf:resource="http://purl.org/dc/dcmitype/StillImage"/>
        <cc:license rdf:resource="http://creativecommons.org/licenses/publicdomain/"/>
        <dc:publisher>
          <cc:Agent rdf:about="http://openclipart.org/">
            <dc:title>Openclipart</dc:title>
          </cc:Agent>
        </dc:publisher>
        <dc:title>Driving Wheel</dc:title>
        <dc:date>2012-09-01T10:38:26</dc:date>
        <dc:description/>
        <dc:source>https://openclipart.org/detail/172010/driving-wheel-by-gnokii-172010</dc:source>
        <dc:creator>
          <cc:Agent>
            <dc:title>gnokii</dc:title>
          </cc:Agent>
        </dc:creator>
        <dc:subject>
          <rdf:Bag>
            <rdf:li>car</rdf:li>
            <rdf:li>car part</rdf:li>
            <rdf:li>driving</rdf:li>
            <rdf:li>wheel</rdf:li>
          </rdf:Bag>
        </dc:subject>
      </cc:Work>
      <cc:License rdf:about="http://creativecommons.org/licenses/publicdomain/">
        <cc:permits rdf:resource="http://creativecommons.org/ns#Reproduction"/>
        <cc:permits rdf:resource="http://creativecommons.org/ns#Distribution"/>
        <cc:permits rdf:resource="http://creativecommons.org/ns#DerivativeWorks"/>
      </cc:License>
    </rdf:RDF>
  </metadata>
</svg>